inDegrees=yes
name=ik_S54_A01_T03
DataType=double
version=3
OpenSimVersion=4.3-2021-08-27-4bc7ad9
endheader
time	pelvis_tilt	pelvis_list	pelvis_rotation	pelvis_tx	pelvis_ty	pelvis_tz	hip_flexion_r	hip_adduction_r	hip_rotation_r	knee_angle_r	knee_angle_r_beta	ankle_angle_r	subtalar_angle_r	mtp_angle_r	hip_flexion_l	hip_adduction_l	hip_rotation_l	knee_angle_l	knee_angle_l_beta	ankle_angle_l	subtalar_angle_l	mtp_angle_l	lumbar_extension	lumbar_bending	lumbar_rotation	arm_flex_r	arm_add_r	arm_rot_r	elbow_flex_r	pro_sup_r	wrist_flex_r	wrist_dev_r	arm_flex_l	arm_add_l	arm_rot_l	elbow_flex_l	pro_sup_l	wrist_flex_l	wrist_dev_l
0	0	0	0	0	0.9399999999999999	0	0	0	0	0	0	0	0	0	0	0	0	0	0	0	0	0	0	0	0	0	0	0	0	89.99999999963507	0	0	0	0	0	0	89.99999999869995	0	0
0.02	0.581308431917089	-4.173538058523733	-88.37411710279414	0	0.9399999999999999	0	0.5389166691666271	3.039945707693739	-4.633491450225965	4.902905345034196	0.08557184118447535	0	0	0	-0.4635559758716889	2.295584986243855	-4.711215451335748	2.955957817549056	0.05159119646629685	0	0	0	0	0	0	1.887287780158371	-1.887287780158371	0.3359145504099555	9.318170122246489	89.66408546896034	0	0	1.887287780158371	-1.887287780158371	0.3359145504099555	9.318170122246489	89.66408546808823	0	0
0.04	0.5831006892224114	-4.205771943757129	-88.41572032995524	0	0.9399999999999999	0	0.5328243212358372	3.042621946418821	-4.612082570526237	4.909200735510185	0.08568171647598002	0	0	0	-0.4888952953343172	2.292962624147378	-4.753681045342971	2.957468585501504	0.05161756434130067	0	0	0	0	0	0	2.025541411713096	-2.025541411713096	0.3616595286638792	9.652776052820135	89.63834049222413	0	0	2.025541411713096	-2.025541411713096	0.3616595286638792	9.652776052820135	89.63834049135683	0	0
0.06	0.6033483229624488	-4.222368317418812	-88.45659156276204	0	0.9399999999999999	0	0.5174273949515508	3.017886808073004	-4.570204187044292	4.897434296832756	0.0854763533798249	0	0	0	-0.5194128541826871	2.309963696454081	-4.775270855352033	2.928723832685806	0.05111587376199483	0	0	0	0	0	0	9.545557462526432	-9.54555746252643	1.806126552146623	58.89043893419719	88.19387355470667	0	0	9.545557462526432	-9.54555746252643	1.806126552146623	58.89043893419719	88.19387355411139	0	0
0.08	0.619077581167549	-4.240585895671405	-88.54792526468717	0	0.9399999999999999	0	0.507829455206977	3.029671231943118	-4.4795676328882	4.869591070786974	0.08499039741094896	0	0	0	-0.5430628729436571	2.338435342357693	-4.822836290723839	2.880297543694648	0.05027067557457685	0	0	0	0	0	0	9.609855427567608	-9.609855427567606	1.816463971913306	58.97870994756025	88.18353613552695	0	0	9.609855427567608	-9.609855427567606	1.816463971913306	58.97870994756025	88.18353613493362	0	0
0.1	0.6149171672241165	-4.203308623255696	-88.55545791595577	0	0.9399999999999999	0	0.6046980216141351	3.031111974025374	-4.477384583407451	4.996813869706952	0.08721085413570526	0	0	0	-0.4522129335039354	2.337192705781669	-4.792199751316019	2.996097458921915	0.05229176536882297	0	0	0	0	0	0	9.679350469348115	-9.679350469348114	1.827762428430622	59.07594097791032	88.17223767965292	0	0	9.679350469348115	-9.679350469348114	1.827762428430622	59.07594097791032	88.17223767906174	0	0
0.12	0.6136013517773825	-4.23827670336518	-88.63835892997398	0	0.9399999999999999	0	0.6174018450425079	3.047561786195419	-4.385632661603175	5.028226273031036	0.08775910399967493	0	0	0	-0.4796807117870531	2.327955266241454	-4.841340107753559	2.981429060537215	0.05203575352101573	0	0	0	0	0	0	9.742101463941536	-9.742101463941534	1.837837930962147	59.16198346393229	88.16216217769335	0	0	9.742101463941536	-9.742101463941534	1.837837930962147	59.16198346393229	88.16216217710405	0	0
0.14	0.6208520388459486	-4.243403315090282	-88.69031679121842	0	0.9399999999999999	0	0.6417032486670071	3.057261966519965	-4.328160574102616	5.054720938206759	0.08822152314120478	0	0	0	-0.4857452298433491	2.341254224432699	-4.840670762319861	2.969818352728725	0.05183310844127059	0	0	0	0	0	0	9.804275319821544	-9.804275319821542	1.847841841393902	59.24754707716664	88.1521582678298	0	0	9.804275319821544	-9.804275319821542	1.847841841393902	59.24754707716664	88.15215826724236	0	0
0.16	0.631333967511482	-4.269205834245341	-88.7275667513936	0	0.9399999999999999	0	0.6479573231238195	3.050373609178535	-4.296270036671134	5.074787540812674	0.08857175142636728	0	0	0	-0.5053018102768252	2.349392511466575	-4.826802846871325	2.956244703275619	0.05159620356680236	0	0	0	0	0	0	9.863243785858719	-9.863243785858719	1.85730147367766	59.32832380718897	88.14269863608297	0	0	9.863243785858719	-9.863243785858719	1.85730147367766	59.32832380718897	88.14269863549727	0	0
0.18	0.6474255568080717	-4.290304708429913	-88.74962221904316	0	0.9399999999999999	0	0.6618517829491283	3.037093167051261	-4.281585169444969	5.112671578520892	0.08923295261832537	0	0	0	-0.5176760268724776	2.358479083966192	-4.829961829236196	2.970288806121101	0.05184131940194472	0	0	0	0	0	0	9.916722725008272	-9.916722725008272	1.865904087809673	59.40193647031644	88.13409602243956	0	0	9.916722725008272	-9.916722725008272	1.865904087809673	59.40193647031644	88.13409602185551	0	0
0.2	0.656073082378383	-4.319980178667933	-88.8005888227361	0	0.9399999999999999	0	0.6575270492797055	3.035107276780145	-4.245005831410931	5.143661160540558	0.08977382285838537	0	0	0	-0.5401634025039409	2.364058682023962	-4.880103837462038	2.976015028367403	0.05194126083384362	0	0	0	0	0	0	9.971786689093495	-9.971786689093495	1.874746316323908	59.47754577932061	88.12525379442738	0	0	9.971786689093495	-9.971786689093495	1.874746316323908	59.47754577932061	88.12525379384498	0	0
0.22	0.6584876679849965	-4.328497767370809	-88.82437630534149	0	0.9399999999999999	0	0.6737500350113783	3.025081118485831	-4.256206984249849	5.161173660231949	0.09007947363825464	0	0	0	-0.5492006880120373	2.370250440685409	-4.875095069969611	2.973304510344065	0.05189395336990174	0	0	0	0	0	0	10.02989498954483	-10.02989498954483	1.884055292995352	59.55703159998355	88.11594481828418	0	0	10.02989498954483	-10.02989498954483	1.884055292995352	59.55703159998355	88.11594481770351	0	0
0.24	0.6695738675992637	-4.323229779610106	-88.84404218109739	0	0.9399999999999999	0	0.7053756432512738	3.004534634199954	-4.272878800019415	5.195733509296264	0.09068265679341921	0	0	0	-0.5401472317406947	2.381580513849685	-4.887968777827044	2.984794744808883	0.05209449579313893	0	0	0	0	0	0	10.08932215162578	-10.08932215162578	1.89357848252078	59.6383893519953	88.10642162929919	0	0	10.08932215162578	-10.08932215162578	1.89357848252078	59.6383893519953	88.10642162872031	0	0
0.26	0.6633671008239991	-4.329735879355982	-88.88678156642712	0	0.9399999999999999	0	0.7052117121413229	3.010081255486128	-4.239738855876492	5.21851367886313	0.09108024575652364	0	0	0	-0.5273040375182295	2.387269237541123	-4.913075458957654	3.002974787791464	0.05241179740133906	0	0	0	0	0	0	10.14692399892961	-10.14692399892961	1.902816144220018	59.71737225446047	88.09718396812433	0	0	10.14692399892961	-10.14692399892961	1.902816144220018	59.71737225446047	88.09718396754718	0	0
0.28	0.6537981376033934	-4.338813868413062	-88.92188092865834	0	0.9399999999999999	0	0.7045518884045201	3.014099104226682	-4.235635347581934	5.228734365666279	0.09125863039305371	0	0	0	-0.5208820118106798	2.400599527558415	-4.944488871752283	3.020866668928317	0.05272406963655261	0	0	0	0	0	0	10.20479937621202	-10.20479937621202	1.912073251436758	59.7964159922138	88.08792686143272	0	0	10.20479937621202	-10.20479937621202	1.912073251436758	59.7964159922138	88.08792686085731	0	0
0.3	0.6505043909495652	-4.384482896922197	-88.93068451738199	0	0.9399999999999999	0	0.649948722078733	3.015231465712287	-4.249956448393752	5.160646949731839	0.09007028080582288	0	0	0	-0.5712773934165831	2.407157472275392	-4.929980411704513	2.950646351454492	0.05149849389483865	0	0	0	0	0	0	10.24802081521391	-10.24802081521391	1.918910430470875	59.85441015655694	88.08108968278546	0	0	10.24802081521391	-10.24802081521391	1.918910430470875	59.85441015655694	88.0810896822113	0	0
0.32	0.6548051661186463	-4.403972589620286	-88.93814594669382	0	0.9399999999999999	0	0.6374968570945653	3.011199303133735	-4.242153836382935	5.13274155951424	0.08958323986747196	0	0	0	-0.5859155307152247	2.413729997400765	-4.939052217540913	2.950781782224213	0.05150085760767879	0	0	0	0	0	0	10.27856930963404	-10.27856930963404	1.923770200741537	59.89579229193261	88.07622991279021	0	0	10.27856930963404	-10.27856930963404	1.923770200741537	59.89579229193261	88.07622991221693	0	0
0.34	0.6475077398232739	-4.357199385733153	-88.95780249692046	0	0.9399999999999999	0	0.7405048893125383	3.00690724501716	-4.197416553381257	5.242231781991326	0.09149420474843822	0	0	0	-0.4975231666401487	2.399470248486573	-4.940836342661576	3.067161105872707	0.05353205998658912	0	0	0	0	0	0	10.34726306743381	-10.34726306743381	1.934765595995729	59.98984175676727	88.06523451815998	0	0	10.34726306743381	-10.34726306743381	1.934765595995729	59.98984175676727	88.06523451758883	0	0
0.36	0.6666081526322695	-4.373357787512839	-88.94741307043022	0	0.9399999999999999	0	0.6814171435795848	2.986774136461243	-4.190938196975011	5.092004298213406	0.08887224052952715	0	0	0	-0.5548958080244577	2.439042893460693	-4.921680739632643	2.958741943515013	0.05163978863119306	0	0	0	0	0	0	10.40474892633764	-10.40474892633764	1.944215081306497	60.07193892289254	88.05578503338893	0	0	10.40474892633764	-10.40474892633764	1.944215081306497	60.07193892289254	88.05578503281947	0	0
0.3800000000000001	0.6618629653897196	-4.307400894236592	-88.95663520084881	0	0.9399999999999999	0	0.783969195008962	2.980651643192158	-4.16602749882627	5.184426001637567	0.09048530355458047	0	0	0	-0.4749073829301169	2.429182432628032	-4.948970238599149	3.016633080623052	0.05265017958145181	0	0	0	0	0	0	10.4702314544787	-10.4702314544787	1.95466048754856	60.16109089659108	88.04533962773914	0	0	10.4702314544787	-10.4702314544787	1.95466048754856	60.16109089659108	88.04533962717163	0	0
0.4000000000000001	0.6396141050729648	-4.308846547729233	-88.95230255107607	0	0.9399999999999999	0	0.7835136987432161	2.991066604649656	-4.1781136140694	5.225765589057095	0.09120681546646725	0	0	0	-0.4828369477800921	2.40829959958817	-4.976445494379599	3.057751517499823	0.05336783168822492	0	0	0	0	0	0	10.51764220834644	-10.51764220834644	1.962354472649066	60.22741228453255	88.03764564307664	0	0	10.51764220834644	-10.51764220834644	1.962354472649066	60.22741228453255	88.03764564251058	0	0
0.4200000000000001	0.6417739087579922	-4.312200436758838	-88.95532363407669	0	0.9399999999999999	0	0.752298131684112	2.981597332049355	-4.169167761818511	5.078696448191508	0.08863997473028343	0	0	0	-0.523317893538338	2.430975199335327	-4.952144098966903	2.877913867141787	0.05022907257042684	0	0	0	0	0	0	10.55382905728209	-10.55382905728209	1.9681556148288	60.27708984973379	88.03184450122626	0	0	10.55382905728209	-10.55382905728209	1.9681556148288	60.27708984973379	88.03184450066128	0	0
0.4400000000000001	0.6244386790968498	-4.285937228465938	-88.94173190837157	0	0.9399999999999999	0	0.7771503765731202	2.988342345955108	-4.182242783668916	5.066067452911571	0.0884195571814297	0	0	0	-0.4970835726515949	2.415576225394183	-4.925858969675802	2.858140613059795	0.04988396418286267	0	0	0	0	0	0	10.61959252504611	-10.61959252504611	1.978635804553155	60.36656665311989	88.02136431209608	0	0	10.61959252504611	-10.61959252504611	1.978635804553155	60.36656665311989	88.02136431153302	0	0
